<?xml version="1.0" standalone="no"?>
<!DOCTYPE svg PUBLIC "-//W3C//DTD SVG 20010904//EN"
 "http://www.w3.org/TR/2001/REC-SVG-20010904/DTD/svg10.dtd">
<svg version="1.0" xmlns="http://www.w3.org/2000/svg"
 width="1080.000000pt" height="1080.000000pt" viewBox="0 0 1080.000000 1080.000000"
 preserveAspectRatio="xMidYMid meet">

<g transform="translate(0.000000,1080.000000) scale(0.100000,-0.100000)"
fill="#000000" stroke="none">
<path d="M6680 6849 c-870 -60 -1574 -785 -1607 -1655 -15 -388 83 -741 292
-1054 350 -523 958 -820 1579 -771 153 12 329 48 450 92 111 41 308 139 386
192 l65 45 555 -553 c551 -550 555 -554 614 -570 126 -37 249 14 312 127 39
71 41 179 5 248 -16 31 -196 219 -564 587 l-541 542 46 68 c127 192 217 414
263 653 22 114 30 360 16 488 -51 469 -277 886 -635 1176 -356 288 -772 418
-1236 385z m376 -553 c233 -47 439 -159 614 -335 233 -233 352 -526 352 -861
0 -753 -695 -1319 -1443 -1176 -483 92 -869 489 -954 980 -22 129 -20 325 6
449 102 500 515 886 1024 956 89 13 309 5 401 -13z"/>
<path d="M1240 6709 c-92 -41 -160 -142 -160 -238 0 -96 63 -192 152 -232 l53
-24 1860 0 1860 0 45 23 c63 33 99 69 126 127 47 98 22 216 -61 297 -76 73 77
68 -1979 68 -1839 0 -1851 -1 -1896 -21z"/>
<path d="M1285 5451 c-118 -30 -205 -136 -205 -252 0 -63 36 -143 83 -187 86
-79 -58 -73 1707 -70 1492 3 1577 4 1611 21 165 82 199 307 64 426 -82 72 61
66 -1670 68 -858 0 -1573 -2 -1590 -6z"/>
<path d="M1297 4180 c-126 -22 -218 -135 -216 -265 1 -91 60 -179 145 -221
l59 -29 1855 0 1855 0 53 24 c60 27 106 75 135 140 15 35 18 59 15 110 -8 109
-56 178 -158 225 l-45 21 -1825 1 c-1004 1 -1846 -2 -1873 -6z"/>
</g>
</svg>
